<?xml version="1.0" encoding="utf-8"?>
<!-- Generator: Adobe Illustrator 26.3.1, SVG Export Plug-In . SVG Version: 6.00 Build 0)  -->
<svg version="1.1" id="Calque_1" xmlns="http://www.w3.org/2000/svg" xmlns:xlink="http://www.w3.org/1999/xlink" x="0px" y="0px"
	 viewBox="0 0 384 512" style="enable-background:new 0 0 384 512;" xml:space="preserve">
<style type="text/css">
	.st0{fill:#0265FC;}
</style>
<path class="st0" d="M256,64c0,35.3-28.7,64-64,64s-64-28.7-64-64s28.7-64,64-64S256,28.6,256,64z M155.7,170.2
	c11.6,2.9,23.9,5.8,36.5,5.8c39.9,0,77.1-20.2,98.8-53.6l18.2-27.9c9.6-14.8,29.4-19,44.3-9.4c14.8,9.6,19,29.4,9.3,44.3l-18.1,27.8
	c-18.3,28.1-43.5,50-72.7,64.3V480c0,17.7-14.3,32-32,32s-32-14.3-32-32v-96h-32v96c0,17.7-14.3,32-32,32s-32-14.3-32-32V221.4
	c-28.4-14-53.1-35.3-71.1-63.3l-19.5-28.3c-9.8-14.8-5.8-34.6,8.9-44.4c14.7-9.8,34.6-5.8,44.4,8.9l19.5,29.2
	c14.4,21.5,35.1,37.4,58.8,45.8C153.9,169.5,154.8,169.8,155.7,170.2L155.7,170.2z"/>
</svg>
