<?xml version="1.0" encoding="utf-8"?>
<!-- Generator: Adobe Illustrator 26.3.1, SVG Export Plug-In . SVG Version: 6.00 Build 0)  -->
<svg version="1.1" id="Calque_1" xmlns="http://www.w3.org/2000/svg" xmlns:xlink="http://www.w3.org/1999/xlink" x="0px" y="0px"
	 viewBox="0 0 45 40" style="enable-background:new 0 0 45 40;" xml:space="preserve">
<path d="M30.3,11.9l9.6,1.4c0.8,0.1,1.5,0.7,1.7,1.4c0.2,0.8,0.1,1.6-0.5,2.2l-6.9,6.9l1.7,9.8c0.1,0.8-0.2,1.6-0.9,2.1
	c-0.7,0.5-1.5,0.5-2.3,0.2l-8.6-4.6l-8.6,4.6c-0.7,0.4-1.6,0.3-2.3-0.2c-0.7-0.5-1-1.3-0.9-2.1l1.7-9.8l-7-6.8
	c-0.6-0.6-0.8-1.4-0.5-2.2c0.2-0.8,0.9-1.3,1.7-1.4l9.6-1.4L22.2,3c0.4-0.7,1.1-1.2,1.9-1.2c0.8,0,1.6,0.5,1.9,1.2L30.3,11.9z"/>
</svg>
